<?xml version="1.0" encoding="utf-8"?>
<!-- Generator: Adobe Illustrator 23.0.3, SVG Export Plug-In . SVG Version: 6.00 Build 0)  -->
<svg version="1.1" id="Layer_1" xmlns="http://www.w3.org/2000/svg" xmlns:xlink="http://www.w3.org/1999/xlink" x="0px" y="0px"
	 viewBox="0 0 512 512" style="enable-background:new 0 0 512 512;" xml:space="preserve">
<style type="text/css">
	.st0{fill:#020202;}
	.st1{fill:#FFFFFF;}
	.st2{fill:url(#SVGID_1_);}
	.st3{fill:url(#SVGID_2_);}
	.st4{fill:url(#SVGID_3_);}
	.st5{fill:url(#SVGID_4_);}
	.st6{fill:url(#SVGID_5_);}
	.st7{fill:url(#SVGID_6_);}
	.st8{fill:url(#SVGID_7_);}
	.st9{fill:url(#SVGID_8_);}
	.st10{fill:url(#SVGID_9_);}
	.st11{fill:url(#SVGID_10_);}
	.st12{fill:url(#SVGID_11_);}
	.st13{fill:url(#SVGID_12_);}
	.st14{fill:url(#SVGID_13_);}
	.st15{fill:url(#SVGID_14_);}
	.st16{fill:url(#SVGID_15_);}
	.st17{fill:url(#SVGID_16_);}
	.st18{fill:#1B83B8;}
	.st19{fill:url(#SVGID_17_);}
	.st20{fill:url(#SVGID_18_);}
	.st21{fill:url(#SVGID_19_);}
	.st22{fill:url(#SVGID_20_);}
	.st23{fill:url(#SVGID_21_);}
	.st24{fill:url(#SVGID_22_);}
	.st25{fill:url(#SVGID_23_);}
	.st26{fill:url(#SVGID_24_);}
	.st27{fill:url(#SVGID_25_);}
	.st28{fill:url(#SVGID_26_);}
	.st29{fill:url(#SVGID_27_);}
	.st30{fill:url(#SVGID_28_);}
	.st31{fill:url(#SVGID_29_);}
	.st32{fill:url(#SVGID_30_);}
	.st33{fill:url(#SVGID_31_);}
	.st34{fill:url(#SVGID_32_);}
	.st35{fill:url(#SVGID_33_);}
	.st36{fill:url(#SVGID_34_);}
	.st37{fill:url(#SVGID_35_);}
	.st38{fill:url(#SVGID_36_);}
	.st39{fill:url(#SVGID_37_);}
	.st40{fill:url(#SVGID_38_);}
	.st41{fill:url(#SVGID_39_);}
	.st42{fill:url(#SVGID_40_);}
	.st43{fill:url(#SVGID_41_);}
	.st44{fill:url(#SVGID_42_);}
	.st45{fill:url(#SVGID_43_);}
	.st46{fill:url(#SVGID_44_);}
	.st47{fill:url(#SVGID_45_);}
	.st48{fill:url(#SVGID_46_);}
	.st49{fill:url(#SVGID_47_);}
	.st50{fill:url(#SVGID_48_);}
	.st51{fill:url(#SVGID_49_);}
	.st52{fill:url(#SVGID_50_);}
	.st53{fill:url(#SVGID_51_);}
	.st54{fill:url(#SVGID_52_);}
	.st55{fill:url(#SVGID_53_);}
	.st56{fill:url(#SVGID_54_);}
	.st57{fill:url(#SVGID_55_);}
	.st58{fill:url(#SVGID_56_);}
	.st59{fill:url(#SVGID_57_);}
	.st60{fill:url(#SVGID_58_);}
	.st61{fill:url(#SVGID_59_);}
	.st62{fill:url(#SVGID_60_);}
	.st63{fill:url(#SVGID_61_);}
	.st64{fill:url(#SVGID_62_);}
	.st65{fill:url(#SVGID_63_);}
	.st66{fill:url(#SVGID_64_);}
	.st67{fill:url(#SVGID_65_);}
	.st68{fill:url(#SVGID_66_);}
	.st69{fill:url(#SVGID_67_);}
	.st70{fill:url(#SVGID_68_);}
	.st71{fill:url(#SVGID_69_);}
	.st72{fill:url(#SVGID_70_);}
	.st73{fill:url(#SVGID_71_);}
	.st74{fill:url(#SVGID_72_);}
	.st75{fill:url(#SVGID_73_);}
	.st76{fill:url(#SVGID_74_);}
	.st77{fill:url(#SVGID_75_);}
	.st78{fill:url(#SVGID_76_);}
	.st79{fill:url(#SVGID_77_);}
	.st80{fill:url(#SVGID_78_);}
	.st81{fill:url(#SVGID_79_);}
	.st82{fill:url(#SVGID_80_);}
	.st83{fill:url(#SVGID_81_);}
	.st84{fill:url(#SVGID_82_);}
	.st85{fill:url(#SVGID_83_);}
	.st86{fill:url(#SVGID_84_);}
	.st87{fill:url(#SVGID_85_);}
	.st88{fill:url(#SVGID_86_);}
	.st89{fill:url(#SVGID_87_);}
	.st90{fill:url(#SVGID_88_);}
	.st91{fill:url(#SVGID_89_);}
	.st92{fill:url(#SVGID_90_);}
	.st93{fill:url(#SVGID_91_);}
	.st94{fill:url(#SVGID_92_);}
	.st95{fill:url(#SVGID_93_);}
	.st96{fill:url(#SVGID_94_);}
	.st97{fill:url(#SVGID_95_);}
	.st98{fill:url(#SVGID_96_);}
	.st99{fill:url(#SVGID_97_);}
	.st100{fill:url(#SVGID_98_);}
	.st101{fill:url(#SVGID_99_);}
	.st102{fill:url(#SVGID_100_);}
	.st103{fill:url(#SVGID_101_);}
	.st104{fill:url(#SVGID_102_);}
	.st105{fill:url(#SVGID_103_);}
	.st106{fill:url(#SVGID_104_);}
	.st107{fill:url(#SVGID_105_);}
	.st108{fill:url(#SVGID_106_);}
	.st109{fill:url(#SVGID_107_);}
	.st110{fill:url(#SVGID_108_);}
	.st111{fill:url(#SVGID_109_);}
	.st112{fill:url(#SVGID_110_);}
	.st113{fill:url(#SVGID_111_);}
	.st114{fill:url(#SVGID_112_);}
	.st115{fill:url(#SVGID_113_);}
	.st116{fill:url(#SVGID_114_);}
	.st117{fill:url(#SVGID_115_);}
	.st118{fill:url(#SVGID_116_);}
	.st119{fill:url(#SVGID_117_);}
	.st120{fill:url(#SVGID_118_);}
	.st121{fill:url(#SVGID_119_);}
	.st122{fill:url(#SVGID_120_);}
	.st123{fill:url(#SVGID_121_);}
	.st124{fill:#B71C46;}
	.st125{fill:#8D47C4;}
	.st126{fill:#20B9CB;}
	.st127{fill:#85CA55;}
	.st128{fill:#BB1E49;}
	.st129{fill:#319517;}
	.st130{fill:#621946;}
	.st131{fill:#891789;}
	.st132{fill:#641D49;}
	.st133{fill:#F17600;}
	.st134{fill:#040404;}
	.st135{fill:#030303;}
	.st136{fill:#050505;}
	.st137{fill:#0B0B0B;}
	.st138{fill:#0A0A0A;}
	.st139{fill:#080808;}
	.st140{fill:#070707;}
	.st141{fill:#060606;}
	.st142{fill:#0E0E0E;}
	.st143{fill:#0D0D0D;}
	.st144{fill:#0C0C0C;}
	.st145{fill:#121212;}
	.st146{fill:#1C1C1C;}
	.st147{fill:#141414;}
	.st148{fill:#0F0F0F;}
	.st149{fill:#111111;}
	.st150{fill:#161616;}
	.st151{fill:#191919;}
	.st152{fill:#171717;}
	.st153{fill:#101010;}
	.st154{fill:#090909;}
</style>
<g>
	<path class="st0" d="M255.7,234.2c-12.5,0.2-22.7,10.8-22.3,23.1c0.4,12.4,11.1,22.3,23.6,21.8c12-0.4,21.6-10.4,21.6-22.5
		C278.5,244.2,268.2,234,255.7,234.2z M256.7,264.4c-5.4-0.1-8.1-3.1-8.3-7.5c-0.2-4.6,2.8-7.5,7.5-7.7c4.8-0.2,7.6,2.7,7.7,7.4
		C263.7,261.2,260.8,263.8,256.7,264.4z"/>
	<path class="st0" d="M396.3,302.5c-4.1-15.5-12.8-28.4-23.1-40.2c-3.8-4.3-3.7-6.7,0-11.1c10.4-12.2,19.4-25.4,23.3-41.4
		c5.9-24-5.8-44.7-29.7-51.4c-14.1-4-28.4-3.5-42.8-1.3c-3.9,0.6-8.8,3.4-11.7,0.2c-3.7-4.2,1.8-7.1,3.6-10.4c6.8-12,6-26.5-2.2-37
		c-8.7-11.3-22.1-15.4-36.3-11c-3.8,1.2-7.2,2.6-11.7,1.3c-15.2-4.4-28.2,0.7-39.3,11.4c-11.2,10.8-18.4,24.2-23.3,38.6
		c-2.5,7.6-6.3,9-13.4,7.5c-14.2-3-28.5-3.4-42.7,0.3c-26.4,6.8-38.7,28.6-30.9,54.7c4.3,14.5,12.4,26.8,22.2,37.9
		c4.1,4.7,4.1,7.5,0,12.3c-9.2,10.5-17,22.1-21.3,35.7c-6,18.9-4,35.7,12.5,48.8c2.3,1.8,4.2,3.5,5.1,6.6
		c4.1,15.2,14.3,24.2,29.7,25.3c15.5,1.1,26.6-6.7,32.8-21.1c0.4-1,1.7-1.6,2.8-2.7c6,15.6,12.1,30.8,23.3,43.2
		c19.6,21.6,45.6,21.7,65.4,0.2c9.6-10.5,16-22.9,20.5-36.2c2.4-7.2,5.9-8.5,12.6-7.1c14.6,3.1,29.4,3.3,44-0.4
		C390.9,348.8,403,327.6,396.3,302.5z M129.5,204.1c-2.9-16.1,4.2-26.7,20.1-31.5c6.4-1.9,12.9-2.3,19.5-2.2
		c25.9,0.2,23.4,0.1,22.7,25.1c-0.7,25.9-21.7,33.4-35.2,47.9c-2.2,2.4-4.2,1.3-6.1-1C141.2,230.9,132.2,219,129.5,204.1z
		 M186,237.4c0,13.9,0,24.8,0,37.1c-7.8-3.4-12.5-9.7-18.3-14.2c-3.1-2.4-2.7-4.6,0.1-6.9C173.2,248.6,178.6,243.8,186,237.4z
		 M166.1,364.8c-9.8-0.3-17.6-8.6-17.4-18.6c0.2-10.1,8.3-18,18.2-17.7c9.8,0.3,17.6,8.5,17.4,18.5
		C184.1,356.9,175.8,365,166.1,364.8z M136.3,332c-7.6-7.7-9.5-15.8-5.9-27.1c3.9-12.3,11.3-22.6,19.2-32.5c2.9-3.6,4.9-4.3,8.7-0.8
		c8.1,7.4,17.1,14,25.2,21.4c8.9,8.1,4.8,19.8,8.5,30.4C165.3,308.5,152.9,310.6,136.3,332z M288.5,111.6
		c9.6,0.4,17.9,9.2,17.5,18.8c-0.3,9.7-9.2,17.9-18.7,17.5c-9.8-0.4-17.7-8.9-17.4-18.7C270.3,119.4,279,111.2,288.5,111.6z
		 M306.7,205.3c-5.8-3.4-10.7-6.4-15.8-9.3c-4.9-2.8-9.8-5.6-16.3-9.2c1.9-1,2.6-1.4,3.3-1.7C303.7,175,304.4,175.5,306.7,205.3z
		 M224.7,138.6c7.2-12.6,15.2-24.5,33.3-25.3c-7.1,30.5,3.9,46.7,34.5,50.2c-12.4,5-23.3,9.4-34.3,13.7c-2.6,1-4.7-0.3-7-1.2
		c-5.3-2.2-10.7-4.2-16.1-6.2C212,161.2,211.8,161.2,224.7,138.6z M237.2,186.6c-11.1,6.5-20.8,12.1-30.6,17.9
		C204.3,176.8,207.9,174.5,237.2,186.6z M206.2,308.6c10.2,6,20.2,11.8,31,18.2c-2.5,1.1-3.6,1.6-4.8,2
		C207.7,338.5,205.4,336.8,206.2,308.6z M292.1,365.3c-4.1,9.4-9,18.4-16.4,25.7c-5.4,5.2-11.6,9.1-19.5,9
		c-5.6,0.2-10.4-1.8-14.8-4.9c-5.1-3.6-9.1-8.2-12.5-13.3c-5.7-8.5-13.3-18.3-12.3-27.4c1.2-10.7,16.2-6.8,23.7-12.3
		c15.8-11.8,29.3,0,43.4,4.2C298.4,350.6,298.3,351.1,292.1,365.3z M274.8,326.8c10.7-6.3,20.7-12.1,32-18.8
		C301.1,343.4,307.1,338,274.8,326.8z M312.2,258.4c-0.5,21.4-6,35.5-26.2,45.2c-38.1,18.3-21.7,18.5-60.3-0.2
		c-20.6-10-29.6-24.2-23.8-47c-7.6-24.9,6.8-36.6,26.6-48.5c19.4-11.6,34.3-11.7,54.4-0.6C304.9,219.4,312.8,233.9,312.2,258.4z
		 M344.9,170.3c1.9,0.1,6.1,0,10.1,0.5c24.2,3.3,33.8,19.5,25,42.2c-0.4,1.1-0.9,2.3-1.5,3.4c-4.5,9.8-9.2,21.6-18,25.6
		c-10.5,4.9-14.5-10.8-23.3-14.6c-14.2-6.1-14.1-19.3-16.1-31.7C317,170.6,316.7,170.6,344.9,170.3z M326.3,276.3
		c0-13.9,0-24.9,0-37c8.5,4.1,18.5,10,19.2,16.7C346.3,264.1,334.3,267.9,326.3,276.3z M355,342.5c-4,0.5-8.2,0.4-10,0.5
		c-28.2-0.2-25.3-0.1-24.5-25.4c0.8-26.1,21.9-33.3,35.4-47.7c3.2-3.4,5,0.5,6.6,2.5c7.2,8.5,13.4,17.6,17.5,28
		C388.8,323.1,379.2,339.2,355,342.5z"/>
</g>
</svg>
